<svg width="20" height="20" viewBox="0 0 20 20" fill="none" xmlns="http://www.w3.org/2000/svg">
<path d="M2.00492 7.25965H5.52098V17.8406H2.00492V7.25965ZM3.78648 2.15918C2.58309 2.15918 1.79688 2.94922 1.79688 3.98617C1.79688 5.0018 2.56008 5.8148 3.74047 5.8148H3.76289C4.9893 5.8148 5.75305 5.00176 5.75305 3.98617C5.73004 2.94922 4.98934 2.15918 3.78648 2.15918ZM14.1539 7.01109C12.2875 7.01109 11.4514 8.03766 10.9849 8.75758V7.25965H7.46781C7.51437 8.25227 7.46781 17.8406 7.46781 17.8406H10.9849V11.9314C10.9849 11.615 11.0079 11.2996 11.1005 11.0729C11.3551 10.4411 11.9338 9.78687 12.9045 9.78687C14.178 9.78687 14.6866 10.7576 14.6866 12.1794V17.8405H18.2031V11.7732C18.2031 8.52328 16.4687 7.01109 14.1539 7.01109Z" fill="white"/>
</svg>
