<svg width="23" height="23" viewBox="0 0 23 23" fill="none" xmlns="http://www.w3.org/2000/svg">
<path d="M11.5 2.06641C6.28983 2.06641 2.06641 6.29014 2.06641 11.5C2.06641 16.7102 6.28983 20.9336 11.5 20.9336C16.7102 20.9336 20.9336 16.7102 20.9336 11.5C20.9336 6.29014 16.7102 2.06641 11.5 2.06641ZM12.3988 12.0664L16.0084 17.3339H14.9875L12.4933 13.6946L11.5 12.2452L10.5068 13.6947L8.01258 17.334H6.99169L10.6013 12.0664L10.9896 11.5L10.6012 10.9336L6.99164 5.66613H8.01254L10.5067 9.30539L11.5 10.7548L12.4932 9.30534L14.9874 5.66609H16.0083L12.3987 10.9336L12.0104 11.5L12.3988 12.0664Z" fill="white"/>
</svg>
