<svg width="31" height="31" viewBox="0 0 31 31" fill="none" xmlns="http://www.w3.org/2000/svg">
<path d="M25.835 17.239C25.835 15.5892 24.4803 14.2491 22.8098 14.2491C20.4263 14.1493 17.9879 14.1052 15.5001 14.1103C13.0124 14.1052 10.5731 14.1493 8.18963 14.2491C6.51993 14.2491 5.16519 15.5892 5.16519 17.239C5.06456 18.5467 5.02127 19.8554 5.02497 21.1623C5.02127 22.47 5.06463 23.7779 5.16519 25.0856C5.16519 26.7361 6.51993 28.0762 8.18963 28.0762C10.5731 28.1754 13.0124 28.2194 15.5001 28.215C17.9879 28.2194 20.4263 28.1754 22.8098 28.0762C24.4803 28.0762 25.835 26.7361 25.835 25.0856C25.9356 23.7779 25.979 22.47 25.9745 21.1623C25.979 19.8554 25.9356 18.5467 25.835 17.239ZM9.56053 25.6627H8.12945V17.7405H6.64847V16.3954H11.0416V17.7405H9.56059V25.6627H9.56053ZM14.652 25.6627H13.381V24.9086C13.1475 25.1869 12.9038 25.3983 12.6496 25.5436C12.3963 25.6891 12.1504 25.7617 11.9117 25.7617C11.6179 25.7617 11.397 25.6604 11.2479 25.4572C11.0989 25.253 11.024 24.9475 11.024 24.5415V18.8265H12.295V24.067C12.295 24.2293 12.3221 24.3468 12.3751 24.4188C12.4286 24.4916 12.5146 24.5284 12.6335 24.5284C12.7276 24.5284 12.8457 24.4798 12.9882 24.3843C13.1306 24.2882 13.262 24.1655 13.381 24.0164V18.8266H14.652V25.6627ZM19.5445 24.247C19.5445 24.733 19.4454 25.1046 19.2471 25.3631C19.0474 25.6208 18.7595 25.7501 18.3829 25.7501C18.1348 25.7501 17.913 25.7002 17.7184 25.5995C17.5238 25.4997 17.3424 25.3461 17.1758 25.1376V25.6627H15.8923V16.3954H17.1758V19.3794C17.3468 19.1703 17.5281 19.0124 17.7213 18.9037C17.9136 18.7951 18.109 18.7407 18.3058 18.7407C18.7082 18.7407 19.0158 18.8868 19.2265 19.1783C19.4388 19.4705 19.5445 19.8958 19.5445 20.4538V24.247ZM24.2432 22.4054H21.812V23.6948C21.812 24.0546 21.8538 24.3036 21.9382 24.443C22.0213 24.5826 22.1644 24.6515 22.367 24.6515C22.577 24.6515 22.7246 24.5928 22.8091 24.4745C22.8928 24.357 22.9347 24.0972 22.9347 23.6948V23.2195H24.2432V23.7336C24.2432 24.4341 24.0837 24.9613 23.7651 25.3167C23.4464 25.6705 22.9714 25.8482 22.3377 25.8482C21.7693 25.8482 21.3214 25.6603 20.9939 25.2844C20.6679 24.9084 20.5035 24.3916 20.5035 23.7335V20.665C20.5035 20.0709 20.6834 19.5878 21.0423 19.2141C21.4014 18.8404 21.8655 18.6538 22.4338 18.6538C23.016 18.6538 23.4618 18.8271 23.7746 19.1722C24.0866 19.5188 24.2431 20.0159 24.2431 20.665V22.4054H24.2432ZM16.1382 11.8465C15.9884 11.6424 15.9149 11.3376 15.9149 10.9309V5.21678H17.1853V10.4573C17.1853 10.6196 17.2117 10.7363 17.2652 10.809C17.3188 10.8809 17.4047 10.9177 17.5237 10.9177C17.6177 10.9177 17.7359 10.8699 17.8783 10.7738C18.0215 10.6776 18.1522 10.555 18.2712 10.4059V5.21678H19.5422V12.0528H18.2712V11.2981C18.037 11.5763 17.7932 11.7878 17.5399 11.9339C17.2865 12.0786 17.0406 12.152 16.8026 12.152C16.5082 12.152 16.2873 12.05 16.1382 11.8465ZM11.1458 10.3237C11.1458 10.9044 11.3132 11.367 11.6466 11.71C11.9799 12.0543 12.4249 12.2254 12.9808 12.2254C13.5586 12.2254 14.0116 12.0594 14.3414 11.7261C14.6711 11.3927 14.8356 10.9345 14.8356 10.3486V6.81819C14.8356 6.29688 14.6674 5.87021 14.3319 5.5398C13.9955 5.2094 13.5653 5.04344 13.0388 5.04344C12.461 5.04344 12.0013 5.20056 11.6591 5.51486C11.317 5.82843 11.1458 6.24983 11.1458 6.77926V10.3237ZM12.4536 6.72791C12.4536 6.57812 12.5028 6.45775 12.599 6.3659C12.6967 6.27411 12.8223 6.22858 12.9772 6.22858C13.1461 6.22858 13.2812 6.27411 13.3847 6.3659C13.4882 6.45769 13.5397 6.57806 13.5397 6.72791V10.4514C13.5397 10.635 13.489 10.7796 13.3884 10.8839C13.287 10.9889 13.149 11.041 12.9771 11.041C12.809 11.041 12.6805 10.9904 12.5894 10.8875C12.4984 10.7847 12.4536 10.6394 12.4536 10.4514V6.72791H12.4536ZM18.1009 20.0058C18.1912 20.1254 18.2367 20.3002 18.2367 20.5307V24.0613C18.2367 24.2794 18.2001 24.4358 18.1266 24.5327C18.0533 24.6281 17.9393 24.6759 17.7838 24.6759C17.6758 24.6759 17.5737 24.6515 17.4769 24.6024C17.3799 24.5532 17.2792 24.473 17.1758 24.3622V20.102C17.2617 20.0079 17.349 19.9382 17.4379 19.8935C17.5267 19.8487 17.6156 19.8259 17.7066 19.8259C17.8784 19.8258 18.0098 19.886 18.1009 20.0058ZM22.8025 20.0367C22.8906 20.1607 22.9347 20.3663 22.9347 20.6521V21.3436H21.812V20.6521C21.812 20.3663 21.856 20.1607 21.9441 20.0367C22.0322 19.9133 22.1776 19.8508 22.3795 19.8508C22.5734 19.8508 22.7143 19.9133 22.8025 20.0367ZM8.11328 8.38078L6.4098 2.78564H7.85196L8.78075 6.49008H8.8703L9.75658 2.78564H11.2104L9.54431 8.2075V12.0529H8.11328V8.38078Z" fill="white"/>
</svg>
