<svg width="84" height="84" viewBox="0 0 84 84" fill="none" xmlns="http://www.w3.org/2000/svg">
<path d="M82.3916 28.5237C83.7293 27.9843 84.3836 26.4585 83.7657 25.1552C81.0485 19.4228 77.119 14.3358 72.2374 10.2522C66.687 5.60912 60.0772 2.40651 52.9934 0.928088C45.9096 -0.550331 38.5706 -0.258931 31.6263 1.77649C24.6821 3.81191 18.347 7.52851 13.1822 12.5971C8.01742 17.6657 4.18235 23.9298 2.01673 30.8345C-0.148904 37.7393 -0.578252 45.0715 0.766719 52.1819C2.11169 59.2922 5.18945 65.9611 9.72739 71.5978C13.7185 76.5552 18.7306 80.5797 24.4109 83.4043C25.7024 84.0465 27.2402 83.421 27.8047 82.0937C28.3692 80.7664 27.7459 79.2406 26.4595 78.5881C21.5676 76.1066 17.2483 72.6104 13.7961 68.3222C9.79678 63.3546 7.08436 57.4773 5.89904 51.211C4.71372 44.9447 5.09211 38.4828 7.00067 32.3977C8.90923 26.3126 12.2891 20.792 16.8408 16.3251C21.3925 11.8582 26.9756 8.58275 33.0955 6.78894C39.2155 4.99514 45.6834 4.73832 51.9263 6.04125C58.1692 7.34418 63.9944 10.1666 68.886 14.2586C73.1085 17.7909 76.5228 22.1751 78.9119 27.1129C79.5401 28.4113 81.0539 29.0631 82.3916 28.5237Z" fill="url(#paint0_linear_93_3311)"/>
<defs>
<linearGradient id="paint0_linear_93_3311" x1="38.5942" y1="4.72467" x2="1.14031" y2="47.0855" gradientUnits="userSpaceOnUse">
<stop stop-color="#68B02C"/>
<stop offset="1" stop-color="#68B02C" stop-opacity="0"/>
</linearGradient>
</defs>
</svg>
