<svg width="83" height="85" viewBox="0 0 83 85" fill="none" xmlns="http://www.w3.org/2000/svg">
<path d="M30.0279 1.69973C29.5395 0.341148 28.0385 -0.371513 26.7113 0.196614C20.874 2.69532 15.636 6.4312 11.3651 11.1576C6.50908 16.5316 3.05332 23.0203 1.30394 30.0488C-0.445428 37.0774 -0.4344 44.4289 1.33604 51.4522C3.10648 58.4755 6.58169 64.9538 11.4538 70.3132C16.326 75.6726 22.4447 79.7478 29.268 82.1776C36.0912 84.6075 43.4084 85.3171 50.5714 84.2436C57.7344 83.1701 64.5222 80.3466 70.3333 76.0232C75.4442 72.2208 79.6609 67.3615 82.7031 61.7882C83.3947 60.5209 82.828 58.959 81.5219 58.3437C80.2159 57.7284 78.6661 58.2935 77.9643 59.5551C75.2954 64.3532 71.6336 68.5396 67.2126 71.8286C62.0913 75.6388 56.1093 78.1271 49.7966 79.0732C43.4838 80.0193 37.0352 79.3939 31.0219 77.2525C25.0085 75.1111 19.6162 71.5197 15.3223 66.7964C11.0285 62.0732 7.96584 56.3639 6.40556 50.1743C4.84527 43.9847 4.83556 37.5058 6.37727 31.3115C7.91898 25.1173 10.9645 19.3988 15.2442 14.6628C18.9385 10.5744 23.4539 7.32703 28.4839 5.12614C29.8065 4.54742 30.5163 3.0583 30.0279 1.69973Z" fill="url(#paint0_linear_93_3292)"/>
<defs>
<linearGradient id="paint0_linear_93_3292" x1="4.87269" y1="47.0572" x2="48.1733" y2="83.5007" gradientUnits="userSpaceOnUse">
<stop stop-color="#C32121"/>
<stop offset="0.27" stop-color="#7B3737" stop-opacity="0"/>
</linearGradient>
</defs>
</svg>
