<svg width="77" height="88" viewBox="0 0 77 88" fill="none" xmlns="http://www.w3.org/2000/svg">
<path d="M75.611 16.9922C76.7062 16.0448 76.8315 14.3828 75.8208 13.3456C71.3755 8.78411 65.9886 5.22994 60.0237 2.93846C53.2414 0.333002 45.9213 -0.559603 38.7117 0.339712C31.502 1.23903 24.6255 3.90251 18.6911 8.09423C12.7567 12.2859 7.94771 17.8765 4.69002 24.3707C1.43233 30.8649 -0.173477 38.0623 0.0148442 45.3254C0.203166 52.5884 2.1798 59.6929 5.76966 66.0096C9.35952 72.3263 14.4518 77.6601 20.5954 81.5386C25.9987 84.9498 32.0685 87.1427 38.3827 87.9785C39.8184 88.1685 41.0757 87.0743 41.1802 85.6299C41.2848 84.1855 40.1966 82.9389 38.7625 82.7374C33.3086 81.9711 28.0689 80.0547 23.395 77.1041C17.9807 73.6859 13.4928 68.9852 10.3291 63.4184C7.16538 57.8515 5.42338 51.5903 5.25741 45.1894C5.09144 38.7885 6.50664 32.4455 9.37764 26.7222C12.2486 20.9988 16.4868 16.0719 21.7168 12.3777C26.9467 8.6836 33.007 6.33628 39.3608 5.54371C45.7146 4.75115 52.1658 5.53779 58.143 7.83398C63.3027 9.81612 67.9716 12.8703 71.8468 16.7837C72.8658 17.8127 74.5157 17.9396 75.611 16.9922Z" fill="url(#paint0_linear_93_3306)"/>
<defs>
<linearGradient id="paint0_linear_93_3306" x1="24.0809" y1="9.81813" x2="5.59944" y2="63.4971" gradientUnits="userSpaceOnUse">
<stop stop-color="#68B02C"/>
<stop offset="1" stop-color="#68B02C" stop-opacity="0"/>
</linearGradient>
</defs>
</svg>
