<svg width="62" height="88" viewBox="0 0 62 88" fill="none" xmlns="http://www.w3.org/2000/svg">
<path d="M61.7412 6.60667C62.3594 5.30362 61.8067 3.73836 60.4693 3.19851C54.5871 0.824174 48.2508 -0.254146 41.8943 0.0504079C34.6667 0.396693 27.6361 2.5201 21.4252 6.23253C15.2143 9.94497 10.0149 15.1318 6.28739 21.3337C2.55991 27.5356 0.419461 34.561 0.0556543 41.7877C-0.308152 49.0144 1.11591 56.2192 4.2017 62.7641C7.28748 69.309 11.9397 74.9918 17.7464 79.3092C23.553 83.6266 30.3348 86.4454 37.4911 87.5158C43.7849 88.4572 50.1975 88.0207 56.2884 86.2491C57.6732 85.8463 58.3803 84.3444 57.8961 82.9859C57.4118 81.6273 55.9197 80.9277 54.5317 81.3194C49.2529 82.8091 43.7079 83.1646 38.2637 82.3503C31.9569 81.407 25.9801 78.9228 20.8628 75.1179C15.7454 71.313 11.6454 66.3047 8.92587 60.5367C6.20637 54.7688 4.95136 48.4191 5.27198 42.0503C5.5926 35.6814 7.47897 29.49 10.764 24.0243C14.049 18.5586 18.6313 13.9874 24.1049 10.7156C29.5786 7.44388 35.7746 5.57253 42.1442 5.26735C47.6426 5.00391 53.1239 5.91454 58.2264 7.92688C59.5681 8.45602 61.1229 7.90972 61.7412 6.60667Z" fill="url(#paint0_linear_93_3299)"/>
<defs>
<linearGradient id="paint0_linear_93_3299" x1="11.892" y1="20.7426" x2="16.5831" y2="77.0873" gradientUnits="userSpaceOnUse">
<stop stop-color="#D0A720"/>
<stop offset="0.47" stop-color="#D0A620" stop-opacity="0"/>
</linearGradient>
</defs>
</svg>
