<svg width="14" height="18" viewBox="0 0 14 18" fill="none" xmlns="http://www.w3.org/2000/svg">
<g clip-path="url(#clip0_146_714)">
<path d="M13.5352 6.27171C13.4358 6.34887 11.6798 7.33833 11.6798 9.53846C11.6798 12.0833 13.9142 12.9836 13.9811 13.0059C13.9708 13.0607 13.6261 14.2388 12.803 15.4392C12.069 16.4955 11.3025 17.5502 10.1364 17.5502C8.97034 17.5502 8.67025 16.8728 7.3241 16.8728C6.01226 16.8728 5.54582 17.5725 4.4792 17.5725C3.41257 17.5725 2.66833 16.595 1.81263 15.3946C0.821457 13.985 0.0206299 11.7952 0.0206299 9.7168C0.0206299 6.38317 2.18818 4.61518 4.32143 4.61518C5.45493 4.61518 6.39981 5.35942 7.11146 5.35942C7.78882 5.35942 8.84516 4.57059 10.1347 4.57059C10.6234 4.57059 12.3794 4.61518 13.5352 6.27171ZM9.52252 3.15929C10.0558 2.52651 10.4331 1.64852 10.4331 0.770524C10.4331 0.648771 10.4228 0.525303 10.4005 0.425842C9.53281 0.458424 8.50048 1.00374 7.87799 1.72569C7.38927 2.28129 6.93312 3.15929 6.93312 4.04928C6.93312 4.18304 6.95541 4.3168 6.9657 4.35967C7.02058 4.36996 7.10975 4.38196 7.19892 4.38196C7.97745 4.38196 8.95662 3.86065 9.52252 3.15929Z" fill="black"/>
</g>
<defs>
<clipPath id="clip0_146_714">
<rect width="14" height="17.1483" fill="white" transform="translate(0 0.425842)"/>
</clipPath>
</defs>
</svg>
