<svg width="17" height="16" viewBox="0 0 17 16" fill="none" xmlns="http://www.w3.org/2000/svg">
<g clip-path="url(#clip0_146_706)">
<path d="M16.4924 8.1497C16.4924 7.49419 16.438 7.01584 16.3202 6.51978H8.65942V9.47843H13.1561C13.0655 10.2137 12.5759 11.321 11.488 12.0651L11.4727 12.1641L13.8949 13.9976L14.0627 14.0139C15.6039 12.6232 16.4924 10.5769 16.4924 8.1497Z" fill="#4285F4"/>
<path d="M8.65942 15.945C10.8624 15.945 12.7119 15.2363 14.0627 14.0139L11.488 12.065C10.799 12.5345 9.87424 12.8623 8.65942 12.8623C6.50174 12.8623 4.67042 11.4716 4.01761 9.54932L3.92192 9.55726L1.4033 11.4618L1.37036 11.5513C2.71211 14.1556 5.46817 15.945 8.65942 15.945Z" fill="#34A853"/>
<path d="M4.01756 9.5493C3.84531 9.05324 3.74562 8.5217 3.74562 7.97251C3.74562 7.42326 3.84531 6.89178 4.0085 6.39571L4.00394 6.29007L1.45375 4.35492L1.37031 4.3937C0.817313 5.47443 0.5 6.68805 0.5 7.97251C0.5 9.25697 0.817313 10.4705 1.37031 11.5513L4.01756 9.5493Z" fill="#FBBC05"/>
<path d="M8.65942 3.08269C10.1915 3.08269 11.225 3.72934 11.8144 4.26974L14.1171 2.07285C12.7029 0.788397 10.8624 0 8.65942 0C5.46817 0 2.71211 1.78937 1.37036 4.39371L4.00855 6.39573C4.67042 4.47347 6.50174 3.08269 8.65942 3.08269Z" fill="#EB4335"/>
</g>
<defs>
<clipPath id="clip0_146_706">
<rect width="16" height="16" fill="white" transform="translate(0.5)"/>
</clipPath>
</defs>
</svg>
