<svg width="18" height="18" viewBox="0 0 18 18" fill="none" xmlns="http://www.w3.org/2000/svg">
<path d="M13.0322 0C15.7714 0 18.0001 2.22884 18 4.96777V13.0322C18 15.7712 15.7714 18 13.0322 18H4.9668C2.22807 17.9998 0 15.7711 0 13.0322V4.96777C0 2.22899 2.22807 0.000241811 4.9668 0H13.0322ZM4.9668 1.59668C3.10868 1.59692 1.59668 3.1096 1.59668 4.96777V13.0322C1.59668 14.8905 3.10868 16.4032 4.9668 16.4033H13.0322C14.8325 16.4033 16.3079 14.9842 16.3984 13.2061L16.4033 13.0322V4.96777C16.4033 3.10945 14.8907 1.59668 13.0322 1.59668H4.9668Z" fill="white"/>
</svg>
