<svg width="18" height="18" viewBox="0 0 18 18" fill="none" xmlns="http://www.w3.org/2000/svg">
<path d="M13.0322 0C15.7714 0 18.0001 2.22884 18 4.96777V13.0322C18 15.7712 15.7714 18 13.0322 18H4.9668C2.22807 17.9998 0 15.7711 0 13.0322V4.96777C0 2.22899 2.22807 0.000241811 4.9668 0H13.0322ZM4.9668 1.59668C3.10868 1.59692 1.59668 3.1096 1.59668 4.96777V13.0322C1.59668 14.8905 3.10868 16.4032 4.9668 16.4033H13.0322C14.8325 16.4033 16.3079 14.9842 16.3984 13.2061L16.4033 13.0322V4.96777C16.4033 3.10945 14.8907 1.59668 13.0322 1.59668H4.9668Z" fill="white"/>
<path d="M9 4.5C11.4813 4.5 13.4999 6.51865 13.5 9C13.5 11.4813 11.4813 13.5 9 13.5C6.51866 13.5 4.5 11.4813 4.5 9C4.50006 6.51865 6.5187 4.5 9 4.5ZM9 6.0498C7.37305 6.0498 6.0498 7.37301 6.0498 9C6.0498 10.6269 7.37315 11.9502 9 11.9502C10.6269 11.9502 11.9502 10.6269 11.9502 9C11.9502 7.37301 10.627 6.0498 9 6.0498Z" fill="white"/>
<path d="M13.5 3.375C13.2044 3.375 12.9141 3.49466 12.7053 3.70432C12.4956 3.91295 12.375 4.20341 12.375 4.5C12.375 4.79567 12.4957 5.08602 12.7053 5.29568C12.914 5.50432 13.2044 5.625 13.5 5.625C13.7966 5.625 14.086 5.50432 14.2957 5.29568C14.5053 5.08602 14.625 4.79557 14.625 4.5C14.625 4.20341 14.5053 3.91295 14.2957 3.70432C14.087 3.49466 13.7966 3.375 13.5 3.375Z" fill="white"/>
</svg>
