<svg width="24" height="24" viewBox="0 0 24 24" fill="none" xmlns="http://www.w3.org/2000/svg">
<path d="M12 0.0126953C13.5548 0.0126953 15.0175 0.288636 16.3877 0.841797L16.6602 0.956055C17.9279 1.50685 19.0576 2.23404 20.0498 3.13672L20.4658 3.53418C21.4187 4.48705 22.1959 5.57732 22.7969 6.80566L23.0439 7.33984C23.6732 8.78818 23.9873 10.3416 23.9873 12C23.9873 13.5358 23.7112 14.9925 23.1582 16.3701L23.0439 16.6455C22.4932 17.9217 21.7657 19.0557 20.8633 20.0488L20.4658 20.4658C19.513 21.4187 18.4227 22.1959 17.1943 22.7969L16.6602 23.0439C15.2118 23.6732 13.6584 23.9873 12 23.9873C10.4642 23.9873 9.00751 23.7112 7.62988 23.1582L7.35449 23.0439C6.07831 22.4932 4.94429 21.7657 3.95117 20.8633L3.53418 20.4658C2.58147 19.5131 1.80409 18.4194 1.20312 17.1836L0.956055 16.6455C0.326751 15.1871 0.0126953 13.6384 0.0126953 12C0.0126953 10.4452 0.288636 8.98251 0.841797 7.6123L0.956055 7.33984C1.58545 5.89125 2.44532 4.62304 3.53418 3.53418C4.48689 2.58147 5.58064 1.80409 6.81641 1.20312L7.35449 0.956055C8.81288 0.326751 10.3616 0.0126953 12 0.0126953ZM9.70801 16.8037C9.91812 17.574 10.1817 18.3062 10.499 19L10.6387 19.2959C11.0189 20.0764 11.4699 20.8264 11.9902 21.5469L12 21.5615L12.0098 21.5469C12.4001 21.0065 12.751 20.4492 13.0625 19.875L13.3613 19.2959C13.7416 18.5153 14.0518 17.6843 14.292 16.8037L14.2959 16.7871H9.7041L9.70801 16.8037ZM3.70898 16.8066C4.28967 17.8078 5.01568 18.679 5.88672 19.4199C6.75797 20.161 7.75453 20.7118 8.87598 21.0723L8.90625 21.0811L8.89062 21.0537C8.62095 20.5593 8.37636 20.0508 8.15723 19.5283L7.94629 19.001C7.67649 18.2915 7.45234 17.5564 7.27246 16.7969L7.26953 16.7871H3.69824L3.70898 16.8066ZM16.7275 16.7969C16.5926 17.3665 16.4326 17.9223 16.2471 18.4639L16.0537 19.001C15.784 19.7102 15.469 20.3944 15.1094 21.0537L15.0938 21.0811L15.124 21.0723C16.2455 20.7118 17.242 20.161 18.1133 19.4199C18.9843 18.679 19.7103 17.8078 20.291 16.8066L20.3018 16.7871H16.7305L16.7275 16.7969ZM2.6875 9.59668C2.58741 9.99705 2.51296 10.3928 2.46289 10.7832C2.41282 11.1738 2.3877 11.5795 2.3877 12C2.3877 12.3154 2.40152 12.6224 2.42969 12.9209L2.46289 13.2168C2.51296 13.6072 2.58741 14.003 2.6875 14.4033L2.69043 14.4121H6.79492L6.79199 14.3984C6.76203 14.1987 6.73634 13.9999 6.71387 13.8027L6.65723 13.2139C6.62726 12.8243 6.6123 12.4196 6.6123 12C6.6123 11.7902 6.61653 11.5841 6.62402 11.3818L6.65723 10.7861C6.6872 10.3964 6.73204 10.0013 6.79199 9.60156L6.79492 9.58789H2.69043L2.6875 9.59668ZM9.16797 9.59863C9.13795 9.79879 9.11138 9.99765 9.08887 10.1953L9.03223 10.7842C9.00221 11.1745 8.9873 11.5798 8.9873 12C8.9873 12.2101 8.99152 12.4165 8.99902 12.6191L9.03223 13.2158C9.06224 13.606 9.10796 14.0012 9.16797 14.4014L9.16895 14.4121H14.8311L14.832 14.4014C14.862 14.2012 14.8886 14.0023 14.9111 13.8047L14.9678 13.2158C14.9978 12.8255 15.0127 12.4202 15.0127 12C15.0127 11.7899 15.0085 11.5835 15.001 11.3809L14.9678 10.7842C14.9378 10.394 14.892 9.99877 14.832 9.59863L14.8311 9.58789H9.16895L9.16797 9.59863ZM17.208 9.60156C17.268 10.0013 17.3128 10.3964 17.3428 10.7861C17.3727 11.1757 17.3877 11.5804 17.3877 12C17.3877 12.2098 17.3835 12.4159 17.376 12.6182L17.3428 13.2139C17.3128 13.6036 17.268 13.9987 17.208 14.3984L17.2051 14.4121H21.3096L21.3125 14.4033C21.3876 14.1031 21.4482 13.8054 21.4951 13.5107L21.5371 13.2168C21.5872 12.8262 21.6123 12.4205 21.6123 12C21.6123 11.5795 21.5872 11.1738 21.5371 10.7832C21.487 10.3928 21.4126 9.99705 21.3125 9.59668L21.3096 9.58789H17.2051L17.208 9.60156ZM8.87598 2.92773C7.89473 3.24314 7.00944 3.70475 6.21973 4.31152L5.88672 4.58008C5.01568 5.32096 4.28967 6.19222 3.70898 7.19336L3.69824 7.21289H7.26953L7.27246 7.20312C7.45234 6.44364 7.67649 5.7085 7.94629 4.99902C8.21602 4.28977 8.53102 3.6056 8.89062 2.94629L8.90625 2.91895L8.87598 2.92773ZM11.9902 2.45312C11.5999 2.99355 11.249 3.55077 10.9375 4.125L10.6387 4.7041C10.2584 5.48472 9.94819 6.31573 9.70801 7.19629L9.7041 7.21289H14.2959L14.292 7.19629C14.0819 6.42598 13.8183 5.69383 13.501 5L13.3613 4.7041C12.9811 3.92359 12.5301 3.17356 12.0098 2.45312L12 2.43848L11.9902 2.45312ZM15.1094 2.94629C15.3791 3.44073 15.6236 3.94915 15.8428 4.47168L16.0537 4.99902C16.3235 5.7085 16.5477 6.44364 16.7275 7.20312L16.7305 7.21289H20.3018L20.291 7.19336C19.7829 6.31727 19.1631 5.54106 18.4326 4.86426L18.1133 4.58008C17.242 3.83903 16.2455 3.28821 15.124 2.92773L15.0938 2.91895L15.1094 2.94629Z" fill="#A2A2A2" stroke="#A2A2A2" stroke-width="0.025"/>
</svg>
