<svg width="24" height="24" viewBox="0 0 24 24" fill="none" xmlns="http://www.w3.org/2000/svg">
<path d="M12 0.0126953C13.5547 0.0126953 15.0215 0.288746 16.4004 0.841797L16.6748 0.956055C17.9511 1.50677 19.0819 2.23021 20.0674 3.125L20.4814 3.51855C21.4255 4.46258 22.197 5.55231 22.7969 6.78711L23.0439 7.3252C23.6731 8.78346 23.9873 10.3418 23.9873 12C23.9873 13.5547 23.7113 15.0215 23.1582 16.4004L23.0439 16.6748C22.4145 18.1334 21.5603 19.4026 20.4814 20.4814C19.5374 21.4255 18.4477 22.197 17.2129 22.7969L16.6748 23.0439C15.2165 23.6731 13.6582 23.9873 12 23.9873C10.4453 23.9873 8.97849 23.7113 7.59961 23.1582L7.3252 23.0439C6.04895 22.4932 4.91811 21.7698 3.93262 20.875L3.51855 20.4814C2.57453 19.5374 1.80302 18.4477 1.20312 17.2129L0.956055 16.6748C0.326862 15.2165 0.0126953 13.6582 0.0126953 12C0.0126953 10.4453 0.288746 8.97849 0.841797 7.59961L0.956055 7.3252C1.50677 6.04895 2.23021 4.91811 3.125 3.93262L3.51855 3.51855C4.46258 2.57453 5.55231 1.80302 6.78711 1.20312L7.3252 0.956055C8.78346 0.326862 10.3418 0.0126953 12 0.0126953ZM12 17.9873C11.0713 17.9873 10.1884 18.106 9.35156 18.3438L8.99609 18.4531C8.05484 18.7635 7.1932 19.2092 6.41211 19.79L6.39941 19.7998L6.41211 19.8096C7.0955 20.3177 7.8405 20.7232 8.64648 21.0244L8.99609 21.1465C9.93744 21.4569 10.9388 21.6123 12 21.6123C12.9287 21.6123 13.8115 21.4936 14.6484 21.2559L15.0039 21.1465C15.9451 20.8361 16.8068 20.3904 17.5879 19.8096L17.6006 19.7998L17.5879 19.79C16.9046 19.2819 16.1594 18.8773 15.3535 18.5762L15.0039 18.4531C14.0626 18.1427 13.0612 17.9873 12 17.9873ZM12 2.3877C9.33671 2.3877 7.06865 3.32393 5.19629 5.19629C3.32393 7.06865 2.3877 9.33671 2.3877 12C2.3877 13.0337 2.53695 14.0139 2.83594 14.9404L2.97363 15.334C3.3641 16.3752 3.90945 17.3068 4.61035 18.1279L4.61816 18.1367L4.62793 18.1299C5.51954 17.4481 6.50284 16.8923 7.57812 16.4629L8.04395 16.2871C9.30255 15.8376 10.6214 15.6123 12 15.6123C13.2064 15.6123 14.3669 15.7847 15.4814 16.1289L15.9561 16.2871C17.2147 16.7366 18.3533 17.3509 19.3721 18.1299L19.3818 18.1367L19.3896 18.1279C20.0029 17.4095 20.4974 16.6067 20.873 15.7197L21.0264 15.334C21.4169 14.2926 21.6123 13.1813 21.6123 12C21.6123 9.50305 20.7893 7.35353 19.1436 5.55176L18.8037 5.19629C16.9314 3.32393 14.6633 2.3877 12 2.3877ZM12 4.8125C13.1768 4.8125 14.169 5.21586 14.9766 6.02344C15.7841 6.83102 16.1875 7.8232 16.1875 9C16.1875 10.1031 15.8327 11.0436 15.123 11.8223L14.9766 11.9766C14.169 12.7841 13.1768 13.1875 12 13.1875C10.8232 13.1875 9.83102 12.7841 9.02344 11.9766C8.21586 11.169 7.8125 10.1768 7.8125 9C7.8125 7.89688 8.16734 6.95638 8.87695 6.17773L9.02344 6.02344C9.83102 5.21586 10.8232 4.8125 12 4.8125ZM12 7.1875C11.477 7.1875 11.0437 7.35862 10.7012 7.70117C10.3586 8.04372 10.1875 8.47698 10.1875 9C10.1875 9.52302 10.3586 9.95628 10.7012 10.2988C11.0437 10.6414 11.477 10.8125 12 10.8125C12.523 10.8125 12.9563 10.6414 13.2988 10.2988C13.6414 9.95628 13.8125 9.52302 13.8125 9C13.8125 8.47698 13.6414 8.04372 13.2988 7.70117C12.9563 7.35862 12.523 7.1875 12 7.1875Z" fill="#A2A2A2" stroke="#A2A2A2" stroke-width="0.025"/>
</svg>
